<?xml version="1.0" standalone="no"?>
<!DOCTYPE svg PUBLIC "-//W3C//DTD SVG 20010904//EN"
 "http://www.w3.org/TR/2001/REC-SVG-20010904/DTD/svg10.dtd">
<svg version="1.0" xmlns="http://www.w3.org/2000/svg"
 width="825.000000pt" height="910.000000pt" viewBox="0 0 825.000000 910.000000"
 preserveAspectRatio="xMidYMid meet">

<g transform="translate(0.000000,910.000000) scale(0.100000,-0.100000)"
fill="#FFFFFF" stroke="none">
<path d="M4253 9022 c-13 -15 -23 -31 -23 -35 0 -5 -12 -21 -27 -36 -16 -14
-43 -45 -61 -69 -86 -111 -411 -435 -494 -493 -18 -13 -45 -36 -60 -51 -14
-15 -30 -28 -36 -28 -5 0 -23 -13 -40 -30 -18 -16 -35 -30 -39 -30 -5 0 -21
-12 -38 -26 -16 -14 -42 -33 -57 -42 -16 -9 -28 -20 -28 -24 0 -4 -6 -8 -13
-8 -7 0 -22 -8 -33 -18 -10 -10 -34 -25 -51 -32 -18 -8 -33 -18 -33 -22 0 -5
-7 -8 -15 -8 -8 0 -15 -4 -15 -9 0 -5 -8 -11 -17 -15 -19 -6 -63 -30 -107 -59
-14 -9 -32 -17 -40 -17 -8 0 -16 -4 -18 -9 -4 -12 -196 -111 -214 -111 -8 0
-14 -3 -14 -8 0 -4 -15 -13 -32 -20 -18 -8 -50 -22 -71 -33 -22 -10 -45 -19
-53 -19 -8 0 -14 -4 -14 -10 0 -5 -6 -10 -14 -10 -8 0 -34 -10 -58 -21 -23
-12 -52 -25 -63 -29 -27 -10 -61 -24 -117 -49 -26 -11 -65 -26 -87 -33 -23 -7
-41 -16 -41 -20 0 -5 -9 -8 -20 -8 -11 0 -28 -4 -38 -9 -18 -9 -62 -28 -99
-42 -39 -15 -67 -26 -105 -43 -21 -9 -55 -23 -75 -32 -21 -9 -55 -24 -76 -35
-22 -10 -45 -19 -53 -19 -8 0 -14 -4 -14 -10 0 -5 -6 -10 -13 -10 -18 0 -67
-24 -67 -32 0 -5 -6 -8 -14 -8 -17 0 -100 -42 -104 -52 -2 -5 -12 -8 -23 -8
-10 0 -19 -4 -19 -10 0 -5 -9 -10 -20 -10 -11 0 -20 -4 -20 -10 0 -5 -9 -10
-20 -10 -11 0 -20 -4 -20 -9 0 -5 -8 -11 -18 -14 -17 -6 -72 -37 -82 -47 -10
-10 -65 -41 -83 -47 -9 -3 -17 -9 -17 -14 0 -5 -7 -9 -15 -9 -8 0 -15 -4 -15
-10 0 -5 -5 -10 -10 -10 -6 0 -20 -9 -32 -20 -12 -11 -28 -20 -35 -20 -7 0
-13 -4 -13 -8 0 -4 -13 -16 -30 -25 -16 -10 -35 -23 -42 -30 -7 -7 -29 -24
-48 -37 -42 -30 -260 -245 -260 -257 0 -5 -8 -18 -18 -29 -27 -29 -82 -111
-82 -122 0 -6 -4 -12 -8 -14 -11 -4 -92 -166 -92 -184 0 -8 -4 -14 -10 -14 -5
0 -10 -11 -10 -25 0 -14 -4 -25 -10 -25 -5 0 -10 -11 -10 -24 0 -14 -4 -28
-10 -31 -5 -3 -10 -19 -10 -36 0 -16 -4 -29 -10 -29 -5 0 -10 -18 -10 -39 0
-22 -4 -42 -9 -45 -28 -18 -31 -256 -12 -981 7 -253 16 -638 21 -855 8 -379
29 -1164 33 -1262 1 -27 6 -48 10 -48 10 0 186 179 247 250 25 29 69 78 98
108 28 30 52 60 52 66 0 6 9 18 20 26 11 8 20 22 20 32 0 10 5 18 10 18 6 0
10 7 10 15 0 8 4 15 9 15 9 0 19 79 31 260 40 593 50 745 59 965 17 371 24
505 28 505 2 0 27 -24 57 -52 29 -29 71 -67 92 -85 21 -17 71 -62 109 -99 39
-36 88 -80 110 -97 22 -18 51 -43 65 -57 14 -14 45 -41 70 -60 25 -19 56 -46
70 -60 14 -14 41 -37 60 -50 19 -14 50 -39 68 -57 18 -18 36 -33 40 -33 4 0
27 -18 51 -40 24 -22 47 -40 52 -40 4 0 19 -11 33 -25 14 -14 27 -25 30 -25 7
0 40 -26 72 -57 13 -13 28 -23 35 -23 6 0 19 -8 28 -18 9 -10 32 -29 51 -42
19 -14 44 -32 54 -42 11 -10 25 -18 31 -18 6 0 17 -9 25 -20 8 -11 20 -20 27
-20 7 0 13 -4 13 -10 0 -5 7 -10 15 -10 8 0 15 -4 15 -9 0 -5 9 -13 20 -16 11
-4 31 -16 43 -28 13 -12 33 -28 45 -35 12 -6 32 -18 44 -25 12 -6 28 -18 36
-24 7 -7 34 -25 60 -40 26 -15 49 -31 50 -35 2 -4 10 -8 18 -8 8 0 24 -9 36
-20 12 -11 28 -20 35 -20 7 0 13 -4 13 -9 0 -5 8 -11 18 -14 17 -6 72 -37 82
-47 3 -3 24 -15 48 -27 23 -13 61 -33 85 -45 23 -13 44 -26 45 -30 2 -5 12 -8
23 -8 10 0 19 -4 19 -10 0 -5 9 -10 20 -10 11 0 20 -4 20 -10 0 -5 9 -10 20
-10 11 0 20 -4 20 -10 0 -5 6 -10 14 -10 7 0 42 -14 77 -31 35 -18 73 -35 84
-39 11 -4 40 -17 63 -29 24 -11 50 -21 58 -21 8 0 24 -5 37 -12 48 -24 57 -28
76 -28 11 0 23 -4 26 -10 3 -5 17 -10 30 -10 13 0 27 -4 30 -10 3 -5 19 -10
35 -10 16 0 32 -4 35 -10 3 -5 19 -10 35 -10 16 0 32 -4 35 -10 3 -5 23 -10
44 -10 20 0 41 -4 47 -9 5 -5 32 -12 59 -15 285 -33 318 -34 475 -17 144 15
253 34 345 61 22 6 52 14 68 17 15 3 30 9 33 14 3 5 18 9 34 9 16 0 32 5 35
10 3 5 15 10 26 10 19 0 28 4 76 28 13 7 32 12 43 12 11 0 20 5 20 10 0 6 11
10 25 10 14 0 25 5 25 10 0 6 7 10 15 10 8 0 23 4 33 9 45 24 152 71 161 71 6
0 11 5 11 10 0 6 6 10 14 10 8 0 58 23 112 52 55 28 109 56 121 62 13 6 23 14
23 19 0 4 9 7 20 7 11 0 20 4 20 9 0 5 8 11 18 14 17 6 72 37 82 47 10 10 65
41 83 47 9 3 17 9 17 14 0 5 6 9 13 9 7 0 23 9 35 20 12 11 26 20 32 20 6 0
20 9 32 20 12 11 28 20 35 20 7 0 13 5 13 10 0 6 6 10 13 10 7 0 23 9 35 20
12 11 25 20 29 20 4 0 21 11 37 25 16 14 32 25 36 25 4 0 20 11 36 25 16 14
35 25 42 25 6 0 12 4 12 8 0 5 12 15 28 23 15 8 34 22 43 31 9 10 21 18 28 18
6 0 11 5 11 10 0 6 7 10 15 10 8 0 15 4 15 8 0 4 13 16 30 25 16 10 35 23 42
30 7 7 29 24 48 37 19 13 37 27 40 30 3 3 21 17 40 30 19 13 42 32 51 42 9 10
21 18 28 18 6 0 11 5 11 10 0 6 5 10 11 10 7 0 19 8 28 18 9 10 32 29 51 42
19 13 42 31 50 40 8 9 31 27 50 40 19 14 45 34 57 47 13 12 40 34 60 50 21 15
45 36 54 45 9 10 19 18 23 18 7 0 46 33 106 90 20 19 52 46 70 60 19 14 61 52
95 85 34 33 81 76 106 95 24 19 46 38 47 42 2 4 7 8 12 8 11 0 18 -76 30 -330
14 -297 30 -559 60 -945 9 -126 24 -338 36 -518 l6 -87 267 2 266 3 -1 1350
c-1 743 -4 1370 -9 1395 -4 25 -11 49 -16 54 -5 6 -9 25 -9 43 0 18 -4 33 -10
33 -5 0 -10 8 -10 19 0 20 -15 60 -57 151 -14 30 -30 66 -37 80 -6 14 -13 27
-16 30 -3 3 -11 15 -17 28 -7 12 -19 32 -25 44 -7 13 -21 30 -30 39 -10 9 -18
21 -18 26 0 5 -8 18 -17 29 -10 10 -31 36 -46 57 -36 47 -151 164 -197 198
-19 15 -46 37 -60 49 -14 12 -37 29 -52 38 -16 9 -28 20 -28 24 0 4 -6 8 -13
8 -7 0 -22 8 -33 18 -10 9 -31 23 -46 31 -16 8 -28 18 -28 23 0 4 -6 8 -13 8
-7 0 -23 9 -35 20 -12 11 -28 20 -37 20 -8 0 -15 3 -15 8 0 4 -10 12 -23 18
-43 21 -112 59 -117 64 -3 3 -27 16 -55 30 -27 14 -51 28 -53 33 -2 4 -10 7
-18 7 -13 0 -53 19 -64 30 -3 3 -27 16 -55 29 -27 13 -67 32 -88 42 -22 11
-45 19 -53 19 -8 0 -14 5 -14 10 0 6 -6 10 -13 10 -18 0 -67 24 -67 33 0 4
-11 7 -24 7 -14 0 -28 5 -31 10 -3 6 -15 10 -26 10 -10 0 -19 5 -19 10 0 6 -7
10 -15 10 -8 0 -25 5 -38 12 -48 24 -57 28 -76 28 -11 0 -23 5 -26 10 -3 6
-15 10 -26 10 -10 0 -28 5 -39 10 -11 6 -29 15 -40 20 -11 6 -27 10 -35 10 -8
0 -23 4 -33 9 -9 5 -28 13 -42 18 -14 6 -38 16 -55 23 -16 7 -39 16 -50 20
-43 16 -72 28 -113 49 -24 11 -50 21 -58 21 -8 0 -14 5 -14 10 0 6 -9 10 -20
10 -11 0 -20 5 -20 10 0 6 -6 10 -12 10 -16 0 -262 122 -266 132 -2 5 -12 8
-22 8 -10 0 -20 3 -22 8 -1 4 -24 18 -50 31 -27 13 -48 28 -48 33 0 4 -6 8
-13 8 -7 0 -23 9 -35 20 -12 11 -28 20 -37 20 -8 0 -15 4 -15 8 0 5 -12 15
-27 23 -16 8 -35 22 -44 31 -9 10 -20 18 -25 18 -5 0 -25 14 -44 30 -19 16
-38 30 -43 30 -4 0 -21 14 -39 30 -17 17 -35 30 -40 30 -6 0 -22 13 -36 28
-15 15 -43 39 -62 52 -19 14 -52 42 -74 62 -21 21 -42 38 -47 38 -4 0 -34 26
-66 58 -32 31 -92 86 -132 122 -64 56 -161 149 -161 155 0 1 -28 31 -62 68
-35 36 -90 95 -123 131 -33 36 -62 65 -65 65 -3 0 -15 -12 -27 -27z m79 -434
c58 -70 330 -342 398 -398 30 -25 74 -64 98 -87 23 -24 46 -43 50 -43 4 0 18
-10 32 -23 14 -12 41 -34 60 -47 19 -14 45 -34 57 -47 12 -12 32 -24 43 -28
11 -3 20 -9 20 -13 0 -4 18 -18 40 -32 22 -14 40 -28 40 -32 0 -5 7 -8 15 -8
9 0 25 -9 37 -20 12 -11 28 -20 35 -20 7 0 13 -4 13 -9 0 -5 14 -14 30 -21 17
-7 30 -16 30 -21 0 -5 9 -9 20 -9 11 0 20 -4 20 -10 0 -5 9 -10 19 -10 11 0
21 -3 23 -8 4 -10 170 -92 186 -92 6 0 12 -4 12 -10 0 -5 6 -10 14 -10 12 0
44 -14 118 -51 10 -5 25 -9 33 -9 8 0 15 -4 15 -10 0 -5 11 -10 24 -10 14 0
28 -4 31 -10 3 -5 15 -10 26 -10 10 0 19 -4 19 -10 0 -5 9 -10 20 -10 11 0 29
-4 40 -10 11 -5 29 -14 40 -20 11 -5 29 -10 39 -10 11 0 23 -4 26 -10 3 -5 15
-10 26 -10 10 0 28 -4 39 -10 11 -5 29 -14 40 -20 11 -5 27 -10 35 -10 8 0 15
-4 15 -10 0 -5 6 -10 14 -10 8 0 31 -8 53 -19 21 -10 67 -33 102 -50 35 -17
70 -31 77 -31 8 0 14 -4 14 -10 0 -5 9 -10 19 -10 11 0 21 -3 23 -7 3 -7 96
-59 155 -87 13 -6 23 -14 23 -18 0 -5 9 -8 20 -8 11 0 20 -4 20 -10 0 -5 7
-10 15 -10 9 0 25 -9 37 -20 12 -11 28 -20 35 -20 7 0 13 -4 13 -10 0 -5 5
-10 11 -10 11 0 95 -55 117 -77 7 -7 17 -13 20 -13 4 0 18 -10 32 -22 14 -13
43 -36 65 -53 57 -43 155 -144 155 -161 0 -10 -13 -14 -42 -15 -24 0 -52 -3
-63 -5 -11 -3 -110 -8 -220 -11 l-201 -6 -19 29 c-27 41 -184 194 -200 194 -7
0 -15 4 -17 8 -4 12 -155 112 -168 112 -5 0 -10 3 -10 8 0 4 -10 12 -23 18
-60 30 -112 60 -115 67 -2 4 -10 7 -17 7 -16 0 -99 42 -103 53 -2 4 -12 7 -23
7 -10 0 -19 5 -19 10 0 6 -6 10 -14 10 -12 0 -44 14 -118 51 -10 5 -25 9 -33
9 -8 0 -15 5 -15 10 0 6 -9 10 -19 10 -11 0 -23 5 -26 10 -3 6 -17 10 -30 10
-13 0 -27 5 -30 10 -3 6 -17 10 -30 10 -13 0 -27 5 -30 10 -3 6 -17 10 -31 10
-13 0 -24 5 -24 10 0 6 -7 10 -15 10 -8 0 -23 4 -33 9 -9 5 -28 13 -42 18 -14
6 -45 20 -68 32 -24 11 -50 21 -58 21 -8 0 -14 5 -14 10 0 6 -9 10 -19 10 -11
0 -23 5 -26 10 -3 6 -15 10 -25 10 -10 0 -20 3 -22 8 -1 4 -21 17 -43 28 -22
12 -60 32 -85 45 -25 13 -47 26 -50 29 -3 3 -17 11 -32 19 -16 8 -28 18 -28
23 0 4 -8 8 -18 8 -10 0 -24 9 -32 20 -8 11 -19 20 -25 20 -6 0 -20 8 -31 18
-10 10 -35 28 -54 42 -19 13 -37 27 -40 30 -3 3 -21 17 -41 32 -20 15 -54 44
-76 65 -59 56 -102 93 -108 93 -16 0 -282 283 -293 312 -6 13 -42 9 -42 -5 0
-7 -9 -19 -20 -27 -11 -8 -20 -18 -20 -23 0 -5 -12 -21 -28 -35 -15 -15 -39
-43 -53 -62 -36 -47 -196 -208 -242 -243 -21 -16 -48 -39 -62 -53 -13 -13 -27
-24 -30 -24 -4 0 -12 -6 -20 -12 -42 -41 -198 -148 -215 -148 -5 0 -10 -4 -10
-9 0 -5 -8 -11 -17 -14 -19 -6 -74 -38 -83 -47 -10 -11 -295 -150 -307 -150
-7 0 -13 -4 -13 -10 0 -5 -7 -10 -15 -10 -9 0 -35 -9 -57 -20 -23 -11 -48 -20
-55 -20 -7 0 -13 -4 -13 -10 0 -5 -9 -10 -20 -10 -11 0 -29 -4 -40 -10 -11 -5
-29 -14 -40 -20 -11 -5 -29 -10 -40 -10 -11 0 -20 -4 -20 -10 0 -5 -9 -10 -19
-10 -11 0 -23 -4 -26 -10 -3 -5 -17 -10 -31 -10 -13 0 -24 -4 -24 -10 0 -5 -9
-10 -19 -10 -11 0 -23 -4 -26 -10 -3 -5 -15 -10 -26 -10 -10 0 -19 -4 -19 -10
0 -5 -6 -10 -13 -10 -21 0 -289 -139 -349 -181 -14 -11 -29 -19 -32 -19 -8 0
-62 -38 -90 -62 -11 -10 -23 -18 -28 -18 -15 0 -164 -141 -205 -194 l-21 -28
-129 6 c-70 3 -190 9 -265 12 -111 5 -138 9 -138 21 0 15 93 110 150 153 18
14 44 35 59 47 14 13 31 23 36 23 6 0 17 9 25 20 8 11 18 20 23 20 5 0 28 14
52 30 24 17 48 30 54 30 6 0 11 5 11 10 0 6 7 10 15 10 8 0 15 3 15 8 0 4 10
12 23 18 44 22 112 59 117 64 10 11 175 90 188 90 6 0 12 5 12 10 0 6 9 10 20
10 11 0 20 5 20 10 0 6 5 10 10 10 10 0 36 11 150 62 25 11 56 25 70 30 14 6
33 14 42 19 10 5 25 9 33 9 8 0 23 4 33 9 9 5 31 14 47 21 17 7 38 16 47 21
10 5 25 9 33 9 8 0 15 5 15 10 0 6 8 10 18 10 18 0 66 20 145 60 22 11 45 20
53 20 8 0 14 5 14 10 0 6 9 10 19 10 11 0 23 5 26 10 3 6 15 10 26 10 10 0 19
5 19 10 0 6 9 10 20 10 11 0 20 5 20 10 0 6 9 10 19 10 11 0 21 4 23 8 2 4 37
24 78 45 93 46 134 70 138 80 2 4 10 7 18 7 8 0 24 9 36 20 12 11 28 20 35 20
7 0 13 5 13 10 0 6 6 10 13 10 7 0 22 8 33 18 10 9 31 23 47 31 15 8 27 18 27
23 0 4 7 8 15 8 8 0 15 5 15 10 0 6 6 10 13 10 7 0 19 9 27 20 8 11 19 20 25
20 5 0 24 12 40 28 17 15 48 40 70 57 52 38 392 378 430 430 17 22 38 47 47
56 10 9 18 21 18 28 0 6 5 11 10 11 6 0 10 6 10 14 0 13 13 23 32 25 3 1 26
-23 50 -51z m15 -794 c42 -51 171 -184 178 -184 7 0 44 -31 91 -77 24 -24 48
-43 54 -43 5 0 10 -4 10 -10 0 -5 7 -10 15 -10 8 0 15 -3 15 -8 0 -4 18 -18
40 -32 22 -14 40 -28 40 -32 0 -5 7 -8 15 -8 8 0 15 -4 15 -10 0 -5 6 -10 14
-10 8 0 16 -3 18 -7 4 -11 48 -36 158 -89 52 -25 103 -50 112 -55 10 -5 25 -9
33 -9 8 0 15 -4 15 -10 0 -5 9 -10 20 -10 20 0 29 -4 77 -28 13 -7 32 -12 43
-12 11 0 20 -4 20 -10 0 -5 9 -10 20 -10 11 0 35 -9 55 -20 20 -11 42 -20 50
-20 8 0 15 -4 15 -10 0 -5 6 -10 13 -10 18 0 67 -24 67 -32 0 -5 9 -8 20 -8
11 0 20 -4 20 -10 0 -5 9 -10 20 -10 11 0 20 -4 20 -10 0 -5 9 -10 20 -10 11
0 20 -4 20 -9 0 -5 14 -14 30 -21 17 -7 30 -16 30 -21 0 -5 6 -9 13 -9 7 0 23
-9 35 -20 12 -11 25 -20 29 -20 27 0 206 -181 218 -221 4 -10 11 -19 16 -19 5
0 9 -8 9 -19 0 -16 -11 -19 -77 -25 -89 -9 -216 -22 -285 -32 -52 -7 -56 -4
-98 56 -31 45 -76 89 -120 120 -19 13 -37 27 -40 30 -3 4 -25 17 -50 31 -25
13 -47 26 -50 29 -11 11 -134 70 -146 70 -8 0 -14 5 -14 10 0 6 -7 10 -15 10
-8 0 -23 4 -33 9 -23 11 -59 26 -102 41 -89 31 -290 129 -290 142 0 4 -8 8
-18 8 -10 0 -24 9 -32 20 -8 11 -20 20 -26 20 -6 0 -25 14 -42 30 -18 17 -34
30 -37 30 -8 0 -76 63 -176 163 -83 83 -109 101 -109 76 0 -12 -244 -259 -257
-259 -4 0 -24 -14 -43 -30 -19 -16 -40 -30 -47 -30 -6 0 -13 -3 -15 -7 -5 -13
-203 -116 -273 -143 -11 -4 -32 -12 -47 -19 -16 -6 -40 -16 -55 -22 -16 -6
-36 -15 -45 -20 -10 -5 -25 -9 -33 -9 -8 0 -15 -4 -15 -10 0 -5 -11 -10 -25
-10 -14 0 -25 -3 -25 -8 0 -4 -17 -15 -37 -25 -21 -9 -60 -31 -88 -47 -27 -17
-58 -33 -67 -37 -10 -3 -18 -9 -18 -14 0 -5 -5 -9 -11 -9 -14 0 -159 -145
-159 -159 0 -15 -45 -25 -78 -16 -32 8 -154 22 -274 31 -108 8 -112 21 -33
113 53 62 140 140 178 160 15 8 27 18 27 23 0 4 7 8 15 8 9 0 25 9 37 20 12
11 28 20 35 20 7 0 13 5 13 10 0 6 9 10 19 10 11 0 21 3 23 8 5 11 257 132
276 132 5 0 22 6 38 14 16 8 47 21 69 31 22 9 48 21 57 26 10 5 27 9 38 9 11
0 20 5 20 10 0 6 9 10 20 10 11 0 20 5 20 10 0 6 6 10 14 10 17 0 100 42 104
53 2 4 12 7 23 7 10 0 19 5 19 10 0 6 9 10 20 10 11 0 20 5 20 10 0 6 6 10 13
10 7 0 23 9 35 20 12 11 28 20 37 20 8 0 15 4 15 8 0 5 12 15 27 23 15 8 41
26 57 42 16 15 33 27 38 27 14 0 269 257 298 300 43 63 48 63 97 4z m93 -920
c25 -3 49 -10 55 -15 5 -5 17 -9 27 -9 10 0 26 -4 36 -9 9 -5 31 -15 47 -22
17 -8 32 -16 35 -19 3 -3 18 -12 35 -20 66 -33 214 -183 215 -217 0 -7 3 -13
8 -13 8 0 32 -49 32 -67 0 -7 5 -13 10 -13 6 0 10 -9 10 -19 0 -11 5 -23 10
-26 6 -3 10 -17 10 -30 0 -13 5 -27 10 -30 6 -3 10 -15 10 -26 0 -10 5 -19 10
-19 6 0 10 -11 10 -25 0 -14 5 -25 10 -25 6 0 10 -7 10 -15 0 -8 5 -25 12 -38
24 -48 28 -57 28 -77 0 -11 5 -20 10 -20 6 0 10 -11 10 -25 0 -14 5 -25 10
-25 6 0 10 -9 10 -20 0 -11 4 -28 9 -38 5 -9 13 -28 18 -42 6 -14 15 -37 22
-52 6 -16 16 -40 22 -55 7 -16 16 -39 22 -53 5 -14 13 -33 18 -42 5 -10 9 -23
9 -28 0 -6 9 -30 20 -52 11 -23 20 -50 20 -60 0 -10 5 -18 10 -18 6 0 10 -11
10 -25 0 -14 5 -25 10 -25 6 0 10 -11 10 -25 0 -14 5 -25 10 -25 6 0 10 -9 10
-20 0 -11 4 -28 9 -38 11 -22 31 -70 64 -152 5 -14 13 -33 18 -42 5 -10 9 -27
9 -38 0 -11 5 -20 10 -20 6 0 10 -11 10 -25 0 -14 5 -25 10 -25 6 0 10 -8 10
-18 0 -10 4 -22 8 -28 4 -5 14 -27 21 -49 13 -42 27 -78 42 -107 18 -36 4 -80
-16 -48 -3 6 -17 10 -31 10 -13 0 -32 4 -42 9 -16 8 -35 14 -132 41 -25 7 -55
16 -68 21 -13 5 -34 9 -47 9 -13 0 -27 5 -30 10 -3 6 -23 10 -44 10 -20 0 -41
4 -46 9 -9 8 -32 13 -137 27 -24 3 -52 9 -63 14 -11 5 -42 11 -70 14 -27 2
-93 10 -145 17 -126 17 -567 17 -685 0 -49 -7 -112 -15 -140 -17 -27 -3 -59
-9 -70 -14 -11 -5 -39 -11 -62 -14 -106 -14 -129 -19 -138 -27 -5 -5 -24 -9
-41 -9 -18 0 -36 -4 -39 -10 -3 -5 -21 -10 -40 -10 -19 0 -37 -4 -40 -10 -3
-5 -19 -10 -35 -10 -16 0 -32 -4 -35 -10 -3 -5 -17 -10 -31 -10 -13 0 -32 -4
-42 -9 -9 -5 -37 -14 -62 -21 -25 -7 -53 -16 -62 -21 -10 -5 -27 -9 -38 -9
-11 0 -20 -4 -20 -10 0 -5 -9 -10 -20 -10 -22 0 -25 11 -11 38 5 9 13 28 18
42 6 14 15 37 22 53 6 15 16 38 21 52 6 14 15 36 20 50 6 14 15 37 21 53 7 15
16 37 20 50 5 12 13 32 18 45 4 12 13 33 18 47 6 14 15 36 20 50 6 14 15 37
22 53 6 15 16 38 21 52 6 14 15 36 20 50 6 14 14 35 19 48 4 12 14 36 21 52 7
17 16 39 20 50 11 30 31 78 41 97 5 10 9 25 9 33 0 8 5 15 10 15 6 0 10 11 10
24 0 14 5 28 10 31 6 3 10 15 10 26 0 10 5 19 10 19 6 0 10 11 10 25 0 14 5
25 10 25 6 0 10 9 10 19 0 11 5 23 10 26 6 3 10 13 10 21 0 8 9 34 20 56 11
23 20 50 20 60 0 10 5 18 10 18 6 0 10 11 10 25 0 14 5 25 10 25 6 0 10 9 10
19 0 11 5 23 10 26 6 3 10 13 10 21 0 13 29 85 51 126 5 10 9 27 9 37 0 11 5
23 10 26 6 3 10 15 10 26 0 10 5 19 10 19 6 0 10 9 10 20 0 11 5 20 10 20 6 0
10 7 10 15 0 8 4 15 9 15 5 0 13 9 16 21 10 30 163 179 184 179 5 0 11 3 13 8
2 4 26 18 53 31 28 13 58 27 67 32 10 5 27 9 37 9 11 0 23 5 26 10 3 6 23 10
43 11 20 0 46 5 57 10 20 8 117 5 205 -7z m-2640 -405 c113 -5 250 -13 305
-19 55 -6 129 -13 165 -16 36 -3 69 -10 75 -15 5 -5 30 -9 56 -9 26 0 50 -4
53 -9 3 -5 23 -11 43 -15 88 -13 113 -19 119 -27 3 -5 14 -9 25 -9 10 0 28 -4
39 -10 11 -5 29 -14 40 -20 11 -5 27 -10 35 -10 8 0 15 -4 15 -10 0 -5 7 -10
16 -10 21 0 94 -51 138 -96 31 -32 66 -102 66 -133 0 -15 5 -32 11 -38 14 -14
13 -380 -1 -417 -5 -15 -10 -47 -10 -71 0 -24 -4 -46 -9 -49 -5 -3 -12 -25
-15 -48 -16 -104 -19 -118 -27 -124 -5 -3 -9 -18 -9 -34 0 -16 -4 -32 -10 -35
-5 -3 -10 -19 -10 -35 0 -16 -4 -32 -10 -35 -5 -3 -10 -17 -10 -30 0 -13 -4
-27 -10 -30 -5 -3 -10 -17 -10 -30 0 -13 -4 -27 -10 -30 -5 -3 -10 -15 -10
-26 0 -10 -5 -29 -12 -42 -24 -48 -28 -57 -28 -77 0 -11 -4 -20 -10 -20 -5 0
-10 -11 -10 -24 0 -14 -4 -28 -10 -31 -5 -3 -10 -15 -10 -26 0 -10 -4 -19 -10
-19 -5 0 -10 -11 -10 -25 0 -14 -4 -25 -10 -25 -5 0 -10 -11 -10 -25 0 -14 -4
-25 -10 -25 -5 0 -10 -9 -10 -19 0 -11 -4 -23 -10 -26 -5 -3 -10 -15 -10 -26
0 -10 -4 -19 -10 -19 -5 0 -10 -7 -10 -15 0 -8 -9 -30 -20 -50 -11 -20 -20
-42 -20 -50 0 -8 -4 -15 -10 -15 -5 0 -10 -9 -10 -20 0 -11 -4 -20 -10 -20 -5
0 -10 -7 -10 -16 0 -8 -7 -22 -15 -31 -19 -18 -37 -8 -104 56 -23 23 -46 41
-51 41 -5 0 -31 21 -58 48 -27 26 -62 57 -78 70 -123 95 -695 666 -814 812
-19 24 -53 62 -75 84 -22 23 -58 63 -79 90 -22 27 -49 58 -60 70 -12 12 -34
38 -49 59 -16 21 -39 48 -51 60 -13 13 -36 42 -51 65 l-28 42 7 133 c4 72 12
134 17 135 5 2 9 15 9 30 0 26 16 83 31 114 5 10 9 24 9 33 0 8 9 30 20 50 11
20 20 41 20 48 0 7 7 21 16 32 18 24 134 35 289 28 55 -3 192 -9 305 -14z
m5610 -34 c0 -9 9 -35 20 -57 11 -23 20 -50 20 -59 0 -10 5 -21 10 -24 6 -3
10 -19 10 -35 0 -16 4 -31 9 -34 21 -13 41 -310 22 -329 -6 -6 -11 -19 -11
-28 0 -10 -3 -19 -8 -21 -4 -1 -24 -28 -44 -58 -20 -30 -71 -92 -114 -136 -44
-45 -99 -105 -124 -134 -63 -74 -525 -536 -591 -590 -29 -25 -81 -72 -114
-105 -34 -33 -76 -71 -95 -85 -19 -14 -58 -49 -87 -77 -29 -29 -57 -53 -62
-53 -5 0 -26 -17 -47 -38 -22 -20 -55 -48 -74 -62 -19 -14 -53 -42 -75 -62
-22 -21 -45 -38 -51 -38 -12 0 -54 75 -54 96 0 8 -4 14 -10 14 -5 0 -10 7 -10
15 0 8 -4 23 -9 33 -8 16 -17 36 -41 97 -24 61 -33 81 -41 97 -5 10 -9 27 -9
38 0 11 -4 20 -10 20 -5 0 -10 11 -10 24 0 14 -4 28 -10 31 -5 3 -10 17 -10
30 0 13 -4 27 -10 30 -5 3 -10 17 -10 30 0 13 -4 27 -10 30 -5 3 -10 17 -10
30 0 13 -4 27 -10 30 -5 3 -10 17 -10 30 0 13 -4 27 -10 30 -5 3 -10 22 -10
41 0 19 -4 34 -9 34 -5 0 -11 17 -14 38 -11 71 -18 107 -27 127 -5 11 -11 36
-14 55 -2 19 -10 69 -17 110 -8 45 -13 146 -13 255 1 182 9 261 25 271 5 3 9
13 9 23 0 21 22 71 33 71 4 0 7 5 7 11 0 12 58 69 70 69 5 0 15 6 22 13 13 12
86 49 138 69 14 6 33 14 42 19 10 5 29 9 42 9 14 0 28 5 31 10 3 6 19 10 35
10 16 0 31 4 34 9 3 4 27 11 53 15 27 4 73 12 103 17 94 16 201 29 318 38 62
5 116 12 119 15 4 3 165 6 360 6 312 0 353 -2 353 -15z m-2745 -1564 c137 -14
237 -30 395 -61 30 -6 72 -14 93 -17 20 -3 40 -9 43 -14 3 -5 20 -9 39 -9 19
0 37 -4 40 -10 3 -5 21 -10 40 -10 19 0 37 -4 40 -10 3 -5 19 -10 35 -10 16 0
32 -4 35 -10 3 -5 19 -10 35 -10 16 0 32 -4 35 -10 3 -5 17 -10 30 -10 13 0
27 -4 30 -10 3 -5 15 -10 26 -10 30 0 89 -38 89 -57 0 -5 9 -28 20 -51 11 -22
20 -46 20 -52 0 -5 4 -18 9 -28 5 -9 14 -30 21 -47 7 -16 16 -38 21 -47 5 -10
9 -27 9 -38 0 -11 3 -20 8 -20 4 0 12 -15 18 -34 9 -29 8 -37 -8 -50 -10 -9
-23 -16 -28 -16 -6 0 -10 -3 -10 -8 0 -4 -18 -18 -40 -32 -22 -14 -40 -28 -40
-32 0 -5 -6 -8 -13 -8 -7 0 -22 -8 -33 -17 -10 -10 -31 -24 -46 -32 -16 -8
-28 -18 -28 -23 0 -4 -4 -8 -10 -8 -8 0 -116 -65 -145 -87 -5 -5 -23 -15 -40
-23 -16 -8 -32 -17 -35 -20 -3 -3 -18 -12 -35 -20 -16 -8 -32 -17 -35 -20 -10
-11 -215 -110 -227 -110 -7 0 -13 -4 -13 -10 0 -5 -6 -10 -13 -10 -18 0 -67
-24 -67 -32 0 -5 -11 -8 -24 -8 -14 0 -28 -4 -31 -10 -3 -5 -15 -10 -26 -10
-10 0 -28 -4 -39 -10 -11 -5 -29 -14 -40 -20 -11 -5 -29 -10 -39 -10 -11 0
-23 -4 -26 -10 -3 -5 -19 -10 -35 -10 -16 0 -32 -4 -35 -10 -3 -5 -24 -10 -45
-10 -21 0 -41 -4 -44 -9 -11 -16 -112 -24 -311 -24 -203 1 -292 8 -309 24 -6
5 -25 9 -42 9 -18 0 -36 5 -39 10 -3 6 -19 10 -35 10 -16 0 -32 5 -35 10 -3 6
-16 10 -29 10 -12 0 -26 4 -32 8 -5 4 -27 14 -49 21 -42 13 -78 27 -107 42
-10 5 -25 9 -33 9 -8 0 -15 5 -15 10 0 6 -6 10 -12 10 -13 0 -219 100 -228
111 -3 3 -20 12 -37 20 -18 8 -33 16 -33 20 0 3 -16 11 -35 19 -19 8 -35 17
-35 22 0 4 -6 8 -13 8 -7 0 -23 9 -35 20 -12 11 -24 20 -27 20 -3 0 -33 18
-65 40 -32 22 -63 40 -67 40 -5 0 -15 9 -23 20 -8 11 -19 20 -25 20 -6 0 -20
8 -31 19 -11 10 -30 23 -42 30 -17 9 -20 17 -15 44 3 17 10 36 14 41 5 6 9 18
9 28 0 10 5 18 10 18 6 0 10 9 10 20 0 11 4 28 9 38 12 22 33 72 65 152 22 53
32 68 59 78 17 7 40 18 49 23 10 5 27 9 37 9 11 0 23 5 26 10 3 6 17 10 30 10
13 0 27 5 30 10 3 6 17 10 30 10 13 0 27 5 30 10 3 6 17 10 30 10 13 0 27 5
30 10 3 6 22 10 41 10 19 0 34 4 34 9 0 8 22 15 98 28 18 3 35 9 38 14 3 5 20
9 39 9 19 0 36 4 39 9 3 4 25 11 48 15 24 3 66 11 93 17 28 6 70 13 95 15 25
3 54 9 65 14 20 9 35 11 228 29 60 5 112 12 115 16 9 9 352 -2 477 -14z"/>
<path d="M4240 6653 c-48 -5 -171 -53 -190 -73 -3 -3 -22 -16 -42 -30 -20 -14
-42 -35 -47 -47 -6 -13 -15 -23 -21 -23 -5 0 -10 -6 -10 -14 0 -8 -3 -16 -7
-18 -13 -5 -53 -88 -53 -108 0 -11 -4 -22 -10 -25 -6 -3 -10 -50 -10 -105 0
-55 4 -102 10 -105 6 -3 10 -17 10 -31 0 -13 5 -24 10 -24 6 0 10 -9 10 -20 0
-11 5 -20 10 -20 6 0 10 -9 10 -19 0 -11 4 -21 8 -23 14 -6 72 -96 72 -112 0
-9 4 -16 9 -16 9 0 17 -43 27 -135 6 -58 22 -95 41 -95 7 0 13 -4 13 -10 0 -6
81 -10 222 -10 l222 0 33 36 c29 33 33 43 33 94 0 54 33 160 52 168 4 2 8 9 8
15 0 7 14 28 30 47 16 19 30 41 30 48 0 6 5 12 10 12 6 0 10 9 10 20 0 11 5
20 10 20 6 0 10 11 10 24 0 14 5 28 10 31 6 3 10 50 10 106 0 59 -4 99 -10 99
-5 0 -10 11 -10 24 0 55 -83 173 -165 236 -23 17 -96 53 -140 68 -35 13 -155
21 -205 15z m110 -252 c0 -17 -4 -33 -10 -36 -5 -3 -10 -28 -10 -54 0 -26 -5
-52 -11 -58 -7 -7 -9 -19 -6 -27 5 -12 21 -16 66 -16 33 0 66 -3 75 -6 18 -7
23 -69 6 -79 -5 -3 -10 -19 -10 -35 0 -16 -4 -32 -10 -35 -5 -3 -10 -17 -10
-30 0 -13 -4 -27 -10 -30 -5 -3 -10 -17 -10 -31 0 -22 -20 -54 -33 -54 -9 0
-19 54 -24 125 -5 85 -16 95 -96 95 -72 0 -94 17 -79 58 6 15 13 47 16 72 12
92 19 115 40 132 11 10 29 18 39 18 9 0 17 5 17 10 0 6 14 10 30 10 27 0 30
-3 30 -29z"/>
<path d="M4084 5490 c-29 -11 -37 -26 -30 -53 9 -39 56 -47 272 -47 197 0 201
0 222 23 26 28 28 50 5 68 -12 11 -66 14 -232 16 -119 1 -226 -2 -237 -7z"/>
<path d="M4134 5288 c-10 -28 -6 -47 11 -64 10 -11 51 -14 165 -14 170 0 184
5 178 62 l-3 33 -172 3 c-171 2 -172 2 -179 -20z"/>
<path d="M1910 6170 l0 -100 -60 0 -60 0 0 -70 c0 -70 0 -70 -28 -70 -17 0
-37 -11 -55 -29 -17 -19 -40 -31 -60 -33 -30 -3 -32 -6 -35 -47 -2 -28 1 -47
10 -52 20 -13 58 -2 78 20 9 12 22 21 28 21 6 0 12 4 14 9 2 5 13 5 26 0 18
-7 22 -16 22 -49 0 -36 -2 -40 -25 -40 -14 0 -38 -11 -53 -25 -15 -14 -38 -28
-52 -31 -48 -11 -50 -13 -50 -59 0 -44 0 -45 34 -45 23 0 42 9 65 31 25 23 38
29 57 25 20 -5 24 -13 24 -41 0 -31 -3 -35 -26 -35 -16 0 -37 -12 -54 -30 -19
-21 -37 -30 -59 -30 -17 0 -31 -1 -32 -2 -10 -51 -9 -92 2 -99 23 -15 47 -10
71 14 29 29 55 39 79 32 17 -6 19 -17 19 -95 l0 -89 58 -3 57 -3 3 -87 3 -88
59 0 60 0 0 84 c0 94 1 96 76 96 50 0 52 -4 56 -110 l3 -65 53 -3 52 -3 0 79
c0 93 8 105 72 100 l43 -3 3 -87 3 -88 59 0 60 0 0 85 c0 94 -2 91 80 97 l35
3 1 75 c1 41 2 81 3 88 2 22 48 12 79 -18 18 -17 43 -30 57 -30 23 0 25 3 25
50 0 47 -1 50 -26 50 -16 0 -37 12 -54 30 -17 18 -38 30 -53 30 -30 0 -36 12
-29 63 5 47 33 50 79 7 18 -17 43 -30 57 -30 24 0 26 3 26 50 0 47 -1 50 -26
50 -16 0 -37 12 -54 30 -19 21 -37 30 -59 30 -30 0 -31 1 -27 43 3 23 5 45 5
49 2 12 74 -14 90 -32 9 -11 28 -22 44 -26 l27 -6 0 56 c0 54 -1 56 -26 56
-16 0 -37 12 -54 30 -18 20 -38 30 -57 30 l-28 0 0 68 0 67 -57 3 -58 3 0 99
0 100 -60 0 -60 0 0 -100 0 -100 -46 0 c-66 0 -74 13 -74 115 l0 86 -52 -3
-53 -3 -3 -75 c-4 -122 -3 -120 -72 -120 l-60 0 0 100 0 100 -60 0 -60 0 0
-100z m565 -234 c11 -10 14 -64 15 -247 0 -129 -2 -249 -6 -267 l-7 -32 -280
2 -280 3 0 266 c0 146 3 271 7 277 11 19 533 17 551 -2z"/>
<path d="M6173 6057 c-24 -6 -43 -14 -43 -19 0 -4 -6 -8 -13 -8 -22 0 -81 -63
-103 -110 -43 -92 -53 -169 -30 -235 l14 -40 192 -3 c174 -2 194 -1 206 15 7
10 14 26 14 36 0 9 5 17 10 17 6 0 10 9 10 20 0 11 5 20 10 20 6 0 10 7 10 15
0 8 5 26 12 40 24 52 37 25 49 -100 16 -163 21 -195 30 -195 5 0 9 6 9 13 0 7
9 23 20 35 11 12 20 24 20 28 0 3 9 19 21 35 l20 29 164 0 164 0 17 35 c23 48
7 188 -27 237 -11 14 -19 29 -19 32 0 12 -48 55 -85 76 -26 14 -54 20 -102 20
-65 0 -133 -16 -133 -32 0 -4 -7 -8 -16 -8 -19 0 -31 -12 -72 -72 -18 -27 -35
-48 -38 -48 -10 0 -34 28 -34 39 0 6 -4 11 -10 11 -5 0 -10 5 -10 11 0 14 -60
67 -97 86 -14 7 -36 13 -49 13 -12 0 -26 5 -29 10 -7 12 -24 11 -82 -3z"/>
<path d="M6443 5613 c-7 -3 -13 -13 -13 -23 0 -10 -7 -20 -15 -24 -8 -3 -96
-3 -195 1 -135 5 -180 3 -180 -6 0 -15 101 -111 117 -111 7 0 13 -4 13 -10 0
-5 5 -10 10 -10 6 0 20 -8 31 -18 10 -11 32 -25 47 -33 15 -8 36 -22 46 -31
11 -10 25 -18 31 -18 6 0 17 -9 25 -20 8 -11 20 -20 27 -20 7 0 13 -4 13 -10
0 -5 5 -10 11 -10 6 0 24 -14 40 -31 l29 -31 39 31 c21 17 44 31 50 31 6 0 11
5 11 10 0 6 7 10 15 10 8 0 15 5 15 10 0 6 5 10 10 10 44 0 310 227 310 264 0
14 -17 16 -126 16 -126 0 -127 0 -150 -27 -13 -16 -24 -33 -24 -38 0 -6 -9
-17 -20 -25 -11 -8 -20 -20 -20 -27 0 -7 -4 -13 -10 -13 -5 0 -10 -7 -10 -15
0 -8 -4 -15 -8 -15 -5 0 -15 -12 -23 -27 -14 -28 -28 -43 -40 -43 -8 0 -15 44
-27 168 -9 88 -11 92 -29 85z"/>
<path d="M4350 4712 c-40 -8 -51 -38 -29 -78 10 -19 21 -24 50 -24 30 0 42 -6
58 -29 12 -16 21 -36 21 -45 0 -9 5 -16 10 -16 6 0 10 -11 10 -24 0 -14 5 -28
10 -31 6 -3 10 -15 10 -26 0 -10 5 -19 10 -19 6 0 10 -5 10 -11 0 -13 25 -39
38 -39 15 0 22 -27 22 -86 0 -30 4 -62 9 -72 5 -9 14 -30 21 -47 7 -16 16 -38
21 -47 16 -32 10 -83 -11 -98 -24 -17 -26 -66 -4 -95 12 -16 18 -18 34 -7 11
6 25 12 31 12 6 0 26 15 45 34 32 32 34 38 34 100 0 37 -4 74 -9 84 -5 9 -14
31 -21 47 -7 17 -16 38 -21 47 -17 33 -11 87 11 100 27 17 27 73 1 88 -11 5
-31 10 -45 10 -29 0 -76 54 -76 88 0 12 -4 22 -10 22 -5 0 -10 11 -10 25 0 14
-4 25 -10 25 -5 0 -10 8 -10 18 0 10 -15 34 -33 54 -28 31 -42 38 -83 42 -27
2 -65 1 -84 -2z"/>
<path d="M4000 4582 c0 -5 -16 -14 -35 -22 -21 -8 -40 -25 -47 -42 -7 -15 -16
-28 -20 -28 -5 0 -8 -22 -8 -50 0 -27 5 -50 10 -50 6 0 10 -9 10 -20 0 -11 5
-29 10 -40 6 -11 15 -29 20 -40 6 -11 10 -29 10 -40 0 -11 5 -20 10 -20 21 0
9 -47 -19 -74 -26 -25 -28 -31 -18 -55 14 -32 28 -42 45 -36 25 9 82 -31 82
-59 0 -8 4 -17 8 -20 4 -3 14 -28 22 -55 7 -28 17 -51 22 -51 4 0 8 -9 8 -20
0 -11 5 -20 10 -20 6 0 10 -6 10 -12 0 -22 52 -38 123 -38 88 0 107 14 83 65
-14 30 -22 34 -59 37 -40 3 -43 6 -66 53 -13 28 -27 58 -32 67 -5 10 -9 27 -9
38 0 11 -4 20 -10 20 -5 0 -10 9 -10 20 0 11 -3 20 -7 20 -5 0 -20 10 -35 23
-23 20 -26 28 -21 66 3 23 1 52 -4 64 -6 12 -16 36 -23 52 -7 17 -16 38 -21
47 -5 10 -9 27 -9 38 0 11 -4 20 -10 20 -20 0 -9 31 20 60 28 27 41 70 21 70
-5 0 -11 9 -14 20 -5 19 -47 30 -47 12z"/>
<path d="M1154 3507 c-10 -12 -25 -35 -33 -50 -8 -15 -18 -27 -23 -27 -4 0 -8
-8 -8 -18 0 -10 -9 -24 -20 -32 -11 -8 -20 -22 -20 -32 0 -10 -4 -18 -9 -18
-5 0 -13 -9 -16 -20 -4 -12 -21 -35 -39 -53 -17 -18 -39 -43 -49 -57 -18 -27
-143 -163 -244 -268 -35 -35 -63 -67 -63 -71 0 -3 -22 -22 -48 -41 -26 -19
-67 -55 -92 -80 -25 -25 -61 -57 -80 -70 -19 -14 -45 -34 -57 -47 -13 -12 -40
-34 -60 -50 -21 -15 -44 -33 -51 -40 -7 -7 -26 -20 -42 -30 -17 -9 -30 -21
-30 -25 0 -4 -8 -8 -18 -8 -10 0 -24 -9 -32 -20 -8 -11 -20 -20 -27 -20 -6 0
-24 -11 -39 -23 -54 -47 -29 -107 68 -165 15 -9 28 -20 28 -24 0 -4 6 -8 13
-8 7 0 22 -8 33 -18 10 -10 35 -28 54 -42 19 -13 47 -37 62 -52 14 -15 30 -28
35 -28 4 0 48 -38 97 -85 49 -47 92 -85 96 -85 10 0 164 -154 195 -195 16 -21
75 -86 132 -143 57 -58 103 -109 103 -114 0 -5 11 -20 24 -33 14 -14 33 -38
42 -55 10 -16 22 -30 26 -30 4 0 8 -7 8 -15 0 -8 5 -15 10 -15 6 0 10 -5 10
-11 0 -6 6 -17 13 -24 6 -8 26 -32 42 -54 24 -32 37 -40 62 -41 39 0 63 9 63
24 0 6 9 18 20 26 11 8 20 19 20 25 0 6 8 20 18 31 9 10 29 35 43 54 15 19 35
45 45 56 11 12 30 36 44 54 14 19 47 56 74 84 26 28 60 67 75 86 35 47 225
236 286 285 28 22 66 56 85 75 19 20 51 47 70 60 19 13 41 30 48 37 8 7 30 26
50 41 21 15 39 29 42 32 3 3 21 17 40 30 19 13 41 30 48 37 7 7 26 20 42 30
17 9 30 21 30 25 0 4 7 8 14 8 16 0 66 60 66 78 0 7 -4 12 -10 12 -5 0 -10 5
-10 10 0 11 -65 80 -75 80 -4 0 -72 49 -115 83 -8 7 -31 23 -50 37 -19 13 -47
37 -62 52 -14 15 -31 28 -38 28 -7 0 -24 12 -38 28 -15 15 -44 40 -65 56 -21
15 -53 42 -70 60 -18 17 -48 42 -67 56 -47 33 -260 248 -260 261 0 7 -8 19
-18 28 -10 9 -29 32 -42 51 -13 19 -29 40 -35 46 -5 6 -21 26 -35 44 -14 18
-49 58 -77 89 -29 31 -53 61 -53 66 0 6 -9 17 -20 25 -11 8 -20 19 -20 26 0
20 -36 44 -66 44 -19 0 -38 -8 -50 -23z m121 -287 c3 -5 15 -10 26 -10 10 0
19 -4 19 -10 0 -5 4 -10 10 -10 11 0 35 -19 92 -71 21 -20 53 -47 70 -60 49
-37 90 -71 128 -107 19 -18 42 -39 51 -47 9 -8 21 -15 27 -15 7 0 12 -5 12
-10 0 -6 27 -37 60 -69 33 -32 60 -62 60 -66 0 -3 17 -23 38 -43 21 -20 49
-53 62 -72 14 -19 40 -51 57 -70 18 -19 36 -42 39 -52 3 -10 8 -18 12 -18 4 0
18 -18 32 -40 14 -22 28 -40 32 -40 5 0 8 -27 8 -60 0 -33 -4 -60 -10 -60 -5
0 -10 -9 -10 -19 0 -11 -4 -21 -8 -23 -5 -1 -28 -32 -52 -68 -24 -36 -52 -72
-62 -81 -10 -9 -18 -21 -18 -27 0 -5 -33 -44 -72 -85 -40 -41 -87 -89 -104
-108 -17 -19 -71 -71 -120 -116 -49 -46 -96 -90 -105 -98 -9 -8 -19 -15 -24
-15 -4 0 -15 -8 -24 -18 -9 -10 -32 -29 -51 -42 -19 -13 -37 -27 -40 -30 -3
-3 -21 -17 -40 -30 -19 -14 -43 -32 -53 -41 -10 -9 -33 -19 -50 -22 -40 -6
-97 3 -97 14 0 5 -7 9 -15 9 -18 0 -51 18 -79 43 -11 9 -24 17 -28 17 -5 0
-21 11 -36 25 -15 14 -34 32 -43 40 -9 8 -19 15 -22 15 -4 0 -48 40 -98 90
-50 49 -95 90 -100 90 -5 0 -9 5 -9 10 0 6 -4 10 -9 10 -10 0 -184 175 -208
210 -9 14 -24 32 -33 40 -9 8 -27 31 -40 50 -14 19 -32 44 -42 54 -10 11 -18
23 -18 28 0 4 -18 27 -40 50 -46 49 -53 96 -20 138 11 14 20 29 20 33 0 5 23
30 50 57 28 27 50 53 50 58 0 5 12 22 28 38 15 16 38 45 52 64 26 36 276 286
329 330 17 13 31 30 31 37 0 7 6 13 13 13 8 0 35 20 61 45 27 25 52 45 57 45
4 0 23 15 41 33 65 64 89 76 150 77 31 0 60 -4 63 -10z"/>
<path d="M1187 3160 c-16 -5 -37 -18 -46 -29 -10 -12 -22 -21 -27 -21 -5 0
-22 -13 -39 -28 -16 -15 -46 -39 -65 -52 -19 -13 -52 -41 -72 -62 -20 -21 -40
-38 -45 -38 -4 0 -19 -11 -33 -25 -210 -207 -279 -277 -300 -305 -14 -18 -37
-46 -53 -63 -15 -16 -35 -42 -44 -58 -10 -16 -21 -29 -26 -29 -4 0 -6 -4 -2
-9 3 -5 -2 -16 -10 -24 -8 -9 -15 -24 -15 -34 0 -11 -6 -25 -12 -32 -10 -11
-10 -14 0 -18 6 -3 12 -19 12 -37 0 -22 9 -43 27 -62 16 -16 41 -47 58 -69 43
-57 481 -495 495 -495 7 0 24 -12 38 -28 15 -15 52 -46 83 -70 47 -35 63 -42
103 -42 44 0 75 11 103 37 7 6 22 15 33 18 11 3 20 11 20 16 0 5 6 9 13 9 6 0
34 17 60 38 57 44 377 360 377 372 0 4 21 30 48 57 61 64 102 111 102 119 0 3
18 23 40 44 65 63 57 101 -54 245 -17 21 -39 48 -48 59 -10 11 -18 23 -18 27
0 4 -15 23 -32 42 -18 19 -53 58 -78 86 -61 72 -213 224 -289 291 -35 30 -76
67 -92 82 -17 15 -39 30 -50 33 -10 4 -19 11 -19 16 0 5 -9 9 -20 9 -11 0 -20
5 -20 10 0 6 -11 10 -24 10 -14 0 -28 5 -31 10 -7 11 -10 11 -48 0z m53 -220
c7 -27 17 -50 22 -50 4 0 8 -11 8 -24 0 -14 5 -28 10 -31 6 -3 10 -17 10 -30
0 -13 5 -27 10 -30 6 -3 10 -19 10 -36 0 -16 5 -29 10 -29 6 0 10 -10 10 -23
0 -13 5 -28 11 -34 6 -6 9 -21 7 -34 -2 -20 -10 -25 -40 -27 l-37 -3 -3 -190
-3 -191 40 6 c40 5 118 19 184 32 19 4 46 18 60 31 15 13 34 26 44 29 11 4 17
16 17 38 0 19 -7 39 -17 48 -21 17 -90 38 -127 38 -17 0 -29 7 -32 18 -3 9
-10 25 -15 34 -14 27 -12 28 31 28 63 0 151 -31 161 -57 5 -13 13 -23 17 -23
14 0 82 -65 82 -78 0 -28 -77 -122 -100 -122 -5 0 -10 -4 -10 -10 0 -5 -7 -10
-15 -10 -8 0 -15 -4 -15 -9 0 -11 -89 -28 -253 -47 l-49 -6 6 -42 c12 -77 14
-101 17 -220 l4 -119 -83 -1 -84 -1 6 60 c4 33 9 120 12 193 l5 132 -55 0
c-31 0 -56 5 -56 10 0 6 -19 10 -42 10 -40 0 -94 13 -130 31 -10 5 -27 9 -38
9 -11 0 -20 5 -20 10 0 6 -8 10 -17 10 -9 0 -36 21 -60 46 -33 36 -43 55 -43
80 0 19 4 34 8 34 5 0 14 10 21 23 7 13 38 37 69 53 31 16 58 32 60 37 2 4 11
7 21 7 9 0 21 4 26 9 19 17 72 23 86 8 8 -7 32 -25 54 -40 37 -26 39 -28 18
-33 -13 -4 -23 -10 -23 -15 0 -5 -13 -9 -30 -9 -32 0 -97 -32 -117 -59 -7 -9
-13 -24 -13 -34 0 -21 63 -87 84 -87 8 0 16 -4 18 -9 2 -6 28 -13 58 -16 151
-19 145 -19 131 -2 -9 12 -11 34 -6 79 3 35 8 116 11 181 l5 118 -25 -7 c-27
-7 -74 25 -48 34 6 2 12 19 12 37 0 19 5 37 10 40 6 3 10 17 10 30 0 13 5 27
10 30 6 3 10 22 10 41 0 19 4 42 9 52 5 9 15 37 21 62 7 25 14 51 16 58 8 29
31 9 44 -38z"/>
<path d="M2755 3192 c-3 -8 -5 -406 -5 -886 l0 -873 113 -6 c61 -3 168 -4 237
-2 l125 3 0 887 0 887 -232 1 c-186 2 -234 -1 -238 -11z"/>
<path d="M3514 3198 c-4 -5 -7 -1668 -4 -1763 0 -7 230 -9 673 -8 369 0 680 2
690 2 15 1 17 16 17 161 0 147 -1 160 -19 170 -12 6 -166 10 -428 9 -224 0
-413 0 -420 1 -16 0 -18 346 -2 366 9 12 79 14 390 14 l379 0 -2 160 -3 161
-376 -1 c-313 0 -378 2 -388 14 -8 10 -11 68 -11 189 1 154 4 176 18 183 13 5
520 14 831 14 l31 0 0 160 c0 139 -2 161 -16 167 -23 9 -1355 10 -1360 1z"/>
<path d="M5195 3200 l-40 -5 0 -884 0 -884 688 -1 687 -1 -2 170 -3 170 -427
0 -428 0 0 192 0 193 400 0 400 0 0 160 0 160 -400 0 -400 0 0 200 0 200 430
-3 430 -2 -2 169 -3 168 -645 2 c-355 0 -663 -1 -685 -4z"/>
<path d="M6840 3202 c-7 -3 -10 -307 -10 -888 0 -835 1 -884 18 -885 18 -1
1321 0 1335 1 4 0 7 72 7 159 0 117 -3 162 -12 168 -7 4 -200 9 -428 10 -228
1 -421 2 -427 2 -19 1 -18 354 0 370 10 7 137 12 408 13 l394 3 3 158 3 157
-396 0 c-330 0 -399 2 -411 14 -11 12 -14 51 -14 188 0 164 1 174 21 186 16
10 110 13 422 12 221 -1 410 -1 420 -1 15 1 17 15 17 160 0 117 -3 162 -12
168 -12 7 -1316 12 -1338 5z"/>
<path d="M6690 1626 c0 -9 5 -16 10 -16 6 0 10 4 10 9 0 6 -4 13 -10 16 -5 3
-10 -1 -10 -9z"/>
<path d="M1661 1439 c-28 -27 -31 -37 -31 -90 0 -33 4 -59 10 -59 6 0 10 -6
10 -13 0 -25 39 -47 86 -47 44 0 74 16 74 40 0 6 5 8 10 5 6 -3 10 3 10 14 0
11 5 23 10 26 6 3 10 22 10 41 0 19 -4 34 -10 34 -5 0 -10 7 -10 16 0 19 -24
44 -42 44 -9 -1 -7 -5 5 -14 9 -7 17 -20 17 -29 0 -9 5 -19 10 -22 6 -3 10
-14 10 -24 0 -21 -22 -71 -32 -71 -5 0 -8 -9 -8 -20 0 -17 -7 -20 -49 -20 -57
0 -86 22 -52 40 12 6 21 17 21 25 0 8 9 15 20 15 13 0 20 -7 20 -20 0 -11 5
-20 10 -20 6 0 10 15 10 33 0 18 5 38 11 44 7 7 9 19 5 28 -4 13 -17 15 -58
13 l-53 -3 0 -58 c0 -39 -4 -57 -12 -57 -13 0 -18 37 -14 90 1 14 10 32 21 41
11 9 16 19 13 23 -4 3 15 6 40 6 26 0 47 5 47 10 0 6 -18 10 -39 10 -31 0 -46
-7 -70 -31z m109 -55 c0 -3 -6 -12 -14 -20 -21 -21 -46 -17 -46 6 0 16 7 20
30 20 17 0 30 -3 30 -6z"/>
<path d="M3987 764 c-3 -4 -6 -165 -7 -359 0 -390 -5 -365 65 -365 67 0 65 -5
65 177 0 159 5 189 34 219 34 34 98 44 126 21 36 -29 40 -55 40 -231 0 -193
-3 -186 71 -186 32 0 41 4 49 23 13 35 7 400 -8 405 -7 2 -12 10 -12 17 0 17
-61 65 -83 65 -9 0 -19 5 -22 10 -3 6 -28 10 -55 10 -27 0 -52 -4 -55 -10 -3
-5 -17 -10 -30 -10 -13 0 -27 -4 -30 -10 -18 -28 -25 0 -25 94 0 57 -3 111 -6
120 -5 12 -20 16 -58 16 -29 0 -55 -3 -59 -6z"/>
<path d="M7452 408 l3 -363 34 -3 c19 -2 44 -1 57 2 l24 6 0 170 c0 107 4 170
10 170 6 0 10 7 10 14 0 23 63 66 96 66 16 0 41 -10 55 -23 31 -26 37 -67 41
-257 1 -69 4 -131 6 -137 5 -17 94 -17 110 -1 16 16 17 336 1 375 -35 87 -54
108 -116 130 -45 15 -109 17 -118 3 -3 -5 -17 -10 -30 -10 -13 0 -27 -4 -30
-10 -3 -5 -13 -10 -21 -10 -11 0 -14 22 -14 120 l0 120 -60 0 -60 0 2 -362z"/>
<path d="M813 737 c-24 -6 -43 -14 -43 -19 0 -4 -7 -8 -15 -8 -23 0 -85 -66
-85 -90 0 -11 -4 -20 -10 -20 -17 0 -11 -78 9 -113 37 -66 46 -77 63 -77 10 0
18 -4 18 -8 0 -5 39 -28 88 -52 108 -55 152 -93 152 -131 0 -31 -26 -69 -47
-69 -7 0 -13 -4 -13 -10 0 -13 -117 -13 -125 0 -3 5 -15 10 -27 10 -11 0 -37
10 -58 21 -55 31 -70 21 -70 -43 0 -58 -2 -56 91 -86 43 -15 225 -16 234 -2 3
5 15 10 26 10 10 0 19 5 19 10 0 6 6 10 13 10 12 0 39 22 62 52 18 23 34 101
24 120 -5 9 -9 26 -9 38 0 30 -89 113 -144 136 -25 11 -46 22 -46 27 0 4 -9 7
-20 7 -11 0 -20 5 -20 10 0 6 -7 10 -15 10 -8 0 -15 5 -15 10 0 6 -6 10 -13
10 -41 0 -63 83 -31 115 37 36 144 60 159 35 3 -5 19 -10 35 -10 16 0 32 -4
35 -10 3 -5 17 -10 31 -10 24 0 25 2 22 56 l-3 57 -45 13 c-52 16 -165 16
-227 1z"/>
<path d="M2105 741 c-11 -5 -37 -14 -59 -21 -43 -14 -96 -56 -96 -77 0 -7 -4
-13 -10 -13 -14 0 -12 -126 3 -152 16 -30 78 -88 93 -88 7 0 14 -4 16 -8 2 -4
37 -25 79 -45 90 -44 114 -63 121 -97 14 -66 -32 -108 -119 -109 -28 -1 -55 3
-58 9 -3 5 -15 10 -25 10 -11 0 -35 9 -55 20 -57 32 -65 28 -65 -36 0 -61 15
-83 57 -84 12 0 25 -4 28 -10 16 -25 275 -4 275 22 0 5 7 8 15 8 20 0 65 44
65 64 0 8 5 18 10 21 14 9 12 111 -2 138 -20 35 -81 97 -95 97 -7 0 -13 5 -13
10 0 6 -9 10 -20 10 -11 0 -20 5 -20 10 0 6 -9 10 -20 10 -11 0 -20 5 -20 10
0 6 -9 10 -20 10 -11 0 -20 5 -20 10 0 6 -7 10 -15 10 -20 0 -85 67 -85 88 0
26 40 66 81 80 43 15 95 16 104 2 3 -5 19 -10 35 -10 16 0 32 -4 35 -10 10
-16 52 -12 59 6 10 27 7 75 -7 89 -31 30 -198 47 -252 26z"/>
<path d="M1233 478 c2 -139 7 -266 12 -283 16 -59 63 -113 121 -140 45 -21 70
-25 142 -25 48 0 105 7 127 14 47 16 115 71 115 92 0 8 5 14 10 14 6 0 10 9
10 19 0 11 5 23 10 26 6 4 10 105 10 271 l0 264 -60 0 -60 0 0 -244 c0 -153
-4 -247 -10 -251 -5 -3 -10 -13 -10 -21 0 -20 -45 -64 -65 -64 -8 0 -15 -4
-15 -10 0 -15 -72 -12 -111 4 -47 19 -85 65 -94 112 -4 21 -9 137 -12 257 l-4
217 -60 0 -60 0 4 -252z"/>
<path d="M2447 723 c-9 -8 -9 -56 -1 -77 5 -13 24 -16 100 -16 l94 0 0 -279
c0 -154 3 -286 6 -295 4 -11 19 -16 49 -16 80 0 75 -22 75 301 l0 289 100 0
100 0 0 50 0 50 -258 0 c-142 0 -262 -3 -265 -7z"/>
<path d="M4887 723 c-8 -16 -6 -659 2 -672 7 -11 39 -13 162 -9 135 4 159 7
192 26 48 28 87 66 87 87 0 8 5 15 10 15 15 0 12 127 -4 159 -8 15 -31 42 -52
59 -36 31 -37 32 -18 50 34 31 44 61 44 131 0 64 -2 71 -33 105 -18 20 -41 36
-50 36 -9 0 -19 5 -22 10 -7 12 -312 14 -318 3z m276 -117 c69 -59 1 -156
-109 -156 l-44 0 0 90 0 90 63 0 c51 0 67 -4 90 -24z m4 -277 c48 -26 71 -75
52 -111 -28 -52 -59 -68 -136 -68 l-73 0 0 100 0 100 59 0 c41 0 71 -6 98 -21z"/>
<path d="M3095 558 c-126 -43 -185 -128 -185 -264 0 -64 18 -144 32 -144 5 0
8 -6 8 -12 0 -17 44 -68 59 -68 6 0 11 -4 11 -10 0 -5 9 -10 19 -10 11 0 23
-4 26 -10 8 -13 202 -13 210 0 3 5 15 10 26 10 33 0 49 25 49 74 0 52 -8 56
-61 29 -47 -24 -123 -43 -127 -32 -2 5 -14 9 -27 9 -45 0 -104 84 -88 126 3 9
44 12 151 12 81 0 157 1 170 1 20 1 22 6 22 65 0 36 -4 67 -9 70 -4 3 -11 19
-14 35 -8 37 -68 99 -105 106 -15 4 -35 10 -44 16 -22 11 -84 10 -123 -3z
m108 -100 c35 -18 45 -33 49 -69 l3 -34 -102 -3 c-101 -3 -103 -2 -103 20 0
24 31 65 65 85 26 15 61 16 88 1z"/>
<path d="M3665 560 c-3 -5 -15 -10 -26 -10 -42 0 -149 -83 -149 -116 0 -8 -4
-14 -10 -14 -5 0 -10 -13 -10 -28 0 -15 -5 -33 -11 -39 -21 -21 2 -179 30
-210 9 -10 20 -26 24 -36 3 -9 18 -22 32 -29 14 -6 25 -15 25 -20 0 -4 9 -8
19 -8 11 0 23 -4 26 -10 8 -13 179 -13 203 -1 9 5 25 12 35 15 13 4 17 16 17
51 0 43 -1 45 -29 45 -16 0 -31 -5 -33 -12 -3 -8 -29 -12 -75 -12 -61 0 -73 3
-95 25 -47 47 -62 101 -52 182 6 42 14 57 51 94 41 40 48 43 99 43 30 0 54 -4
54 -10 0 -5 9 -10 19 -10 11 0 21 -5 23 -12 2 -6 12 -9 21 -5 13 5 17 19 17
56 0 47 -2 51 -27 56 -16 4 -36 10 -45 16 -23 12 -125 12 -133 -1z"/>
<path d="M5655 560 c-3 -5 -15 -10 -25 -10 -10 0 -20 -5 -22 -11 -3 -9 -9 -9
-25 0 -12 6 -42 11 -66 11 -36 0 -46 -4 -50 -20 -11 -43 -8 -462 4 -476 6 -8
29 -14 49 -14 72 0 70 -6 70 181 0 106 4 169 10 169 6 0 10 7 10 15 0 28 49
49 106 47 l54 -2 0 46 c0 33 -5 51 -17 60 -21 16 -89 18 -98 4z"/>
<path d="M5970 560 c-8 -5 -30 -10 -47 -10 -18 0 -33 -4 -33 -10 0 -5 -7 -10
-15 -10 -21 0 -31 -32 -27 -80 3 -31 8 -40 22 -40 10 0 20 3 22 8 2 4 23 17
46 30 71 36 152 25 152 -21 0 -9 5 -17 11 -19 5 -2 7 -11 4 -20 -4 -11 -23
-18 -58 -22 -131 -14 -157 -18 -157 -26 0 -4 -13 -13 -30 -20 -16 -7 -30 -19
-30 -26 0 -8 -4 -14 -8 -14 -12 0 -32 -62 -32 -98 0 -56 49 -132 85 -132 8 0
15 -4 15 -10 0 -14 157 -13 165 1 5 7 29 8 70 4 111 -12 105 -24 105 199 0
211 -4 229 -60 279 -16 15 -41 27 -55 27 -14 0 -25 5 -25 10 0 13 -100 13
-120 0z m138 -318 c2 -18 -1 -32 -7 -32 -6 0 -11 -7 -11 -15 0 -9 -10 -26 -23
-39 -66 -66 -171 -19 -138 63 14 31 31 41 101 51 68 11 75 8 78 -28z"/>
<path d="M6575 560 c-3 -5 -15 -10 -26 -10 -10 0 -29 -6 -40 -12 -17 -10 -23
-10 -26 0 -7 19 -109 16 -117 -4 -3 -9 -6 -116 -6 -239 0 -123 3 -230 6 -239
6 -17 58 -21 102 -10 22 6 22 8 22 180 0 109 4 174 10 174 6 0 10 5 10 11 0
14 25 39 39 39 6 0 11 5 11 10 0 14 72 12 90 -3 36 -29 40 -55 40 -231 0 -172
0 -174 23 -180 35 -9 85 -7 92 4 4 6 6 99 5 207 -1 197 -1 197 -27 233 -15 19
-34 39 -42 45 -50 31 -153 47 -166 25z"/>
<path d="M7136 561 c-4 -6 -20 -11 -37 -11 -16 0 -29 -4 -29 -10 0 -5 -6 -10
-13 -10 -23 0 -83 -58 -104 -102 -20 -41 -37 -105 -37 -138 1 -42 18 -120 25
-120 5 0 9 -7 9 -16 0 -21 56 -76 103 -103 31 -17 55 -21 132 -21 52 0 97 4
100 10 3 6 15 10 26 10 16 0 19 7 19 50 0 46 -2 50 -23 50 -13 0 -28 -5 -35
-12 -6 -6 -40 -12 -74 -12 -56 -1 -67 2 -95 28 -18 16 -33 35 -33 43 0 7 -4
13 -10 13 -15 0 -12 146 3 172 15 28 47 60 75 76 26 14 112 16 112 2 0 -5 8
-10 18 -10 10 0 23 -5 30 -12 20 -20 33 5 30 58 -3 46 -5 49 -38 57 -59 15
-147 20 -154 8z"/>
</g>
</svg>
